<svg version="1.1" id="Layer_1" xmlns="http://www.w3.org/2000/svg" xmlns:xlink="http://www.w3.org/1999/xlink" x="0px" y="0px"
	 width="100%" viewBox="0 0 1024 1024" enable-background="new 0 0 1024 1024" xml:space="preserve">
<path fill="#000000" opacity="1.000000" stroke="none" 
	d="
M466.745911,851.900757 
	C481.427399,804.541809 496.033478,757.574341 511.001801,709.441895 
	C501.620422,712.887512 493.447510,716.057129 485.156677,718.880493 
	C478.704010,721.077820 472.194580,723.251953 465.551849,724.718079 
	C450.907654,727.950134 440.866455,716.847412 445.485840,702.608337 
	C449.337006,690.737244 453.573547,678.990784 457.677643,667.202515 
	C458.279694,665.473145 459.094269,663.817749 458.511932,661.489624 
	C452.349213,661.489624 446.087616,661.297913 439.841705,661.529419 
	C426.702271,662.016296 413.576599,663.009094 400.434967,663.264587 
	C386.843506,663.528809 380.239777,653.941833 385.271912,641.256409 
	C391.042053,626.710693 397.323822,612.367859 403.375305,597.933594 
	C404.524109,595.193481 406.031616,592.578857 406.471771,589.598450 
	C399.483612,586.183533 397.500305,587.225464 395.353149,593.782593 
	C388.248230,615.479797 373.479004,629.110107 351.169983,634.174561 
	C343.504333,635.914795 335.657806,636.056641 327.867767,634.477295 
	C325.650269,634.027771 323.609406,634.465088 321.613953,635.543335 
	C285.476990,655.070435 240.375992,645.634460 211.324677,615.469238 
	C194.054443,597.536743 183.127609,576.297058 179.136337,551.820862 
	C175.150009,527.375000 177.961441,503.852570 192.984314,483.241608 
	C196.746811,478.079559 198.839523,472.963409 199.953598,466.772400 
	C204.853699,439.542053 229.572556,416.393707 257.254150,412.671417 
	C260.001556,412.302002 261.735229,411.056183 263.239288,408.809692 
	C278.839661,385.509003 301.102844,373.522705 328.628387,370.689148 
	C331.595917,370.383698 332.574921,368.976135 332.907562,366.285431 
	C334.415222,354.089600 337.991272,342.564545 344.309021,331.950653 
	C349.646484,322.983582 356.102081,315.007324 364.711304,308.967804 
	C366.867249,307.455383 368.146851,305.676483 368.783875,303.020386 
	C375.633026,274.462891 400.062622,251.635162 428.821991,246.971603 
	C432.403625,246.390823 436.160431,246.417297 439.789551,246.720093 
	C444.456146,247.109451 448.033386,245.767868 451.341064,242.370529 
	C463.454681,229.928391 478.257751,221.812500 495.328125,219.523590 
	C504.695312,218.267578 508.265228,213.682648 511.252167,205.696350 
	C523.791504,172.169754 536.892334,138.853210 549.782043,105.457611 
	C551.771057,100.304375 554.313477,95.687920 560.478577,94.753624 
	C567.809814,93.642601 572.668396,96.654991 575.222290,104.343079 
	C580.414246,119.972572 585.226807,135.729279 590.513245,151.325912 
	C598.312317,174.335526 606.432800,197.236023 614.296875,220.223877 
	C615.422546,223.514404 617.094238,225.282043 620.655457,226.223175 
	C633.596313,229.643082 645.053589,236.068741 654.792664,245.228836 
	C657.692200,247.955994 660.739929,249.356094 664.476440,249.550644 
	C678.369934,250.274048 690.200378,256.253571 700.773438,264.613342 
	C717.568481,277.892487 729.172241,294.762482 731.621338,316.440308 
	C732.435913,323.650543 735.111145,329.251740 738.994324,334.920837 
	C744.512451,342.976715 748.010559,352.090271 750.029175,361.537720 
	C751.166077,366.858337 753.500244,367.941071 758.430786,367.983948 
	C780.140686,368.172760 800.701477,372.692322 818.963379,385.227264 
	C827.846252,391.324463 835.756897,398.426392 841.650818,407.467896 
	C843.569580,410.411285 845.800110,411.855957 849.089233,412.480988 
	C877.815979,417.939575 900.107300,440.125488 904.900146,468.705139 
	C905.766357,473.870148 907.481689,477.953552 910.511658,482.102264 
	C926.466736,503.949158 929.907898,528.591309 924.227661,554.332520 
	C915.898499,592.078125 895.220215,621.124695 859.500793,637.413025 
	C833.485229,649.276367 806.882141,649.343018 781.046753,635.880798 
	C777.795349,634.186646 774.890930,633.980408 771.552368,634.506470 
	C753.263000,637.388245 736.457397,634.001221 721.562866,622.582275 
	C716.474670,618.681458 712.307617,613.983887 708.913574,608.555054 
	C707.707520,606.625977 706.934998,604.364990 704.436157,602.451050 
	C685.956116,628.560059 666.885986,654.068665 647.768188,679.614685 
	C649.818726,681.364807 651.728882,680.750793 653.446960,680.672485 
	C666.911438,680.058411 680.372070,679.355530 693.832031,678.644897 
	C700.163086,678.310669 705.435120,679.943970 708.130005,686.292786 
	C710.808228,692.602417 709.591675,697.847412 703.548523,703.250854 
	C689.395935,715.905518 675.184998,728.501343 660.765442,740.849854 
	C627.745117,769.127380 594.568420,797.222290 561.488708,825.430542 
	C536.015442,847.152527 510.611755,868.956055 485.120148,890.656433 
	C482.471710,892.911072 479.587799,894.986633 476.546051,896.659790 
	C471.365509,899.509399 466.150970,898.957092 461.621887,895.207703 
	C457.260284,891.597168 455.704865,886.730164 457.370300,881.273071 
	C460.331451,871.570435 463.556091,861.948120 466.745911,851.900757 
M339.471741,465.620209 
	C336.200287,460.827728 336.650635,457.982880 343.057831,453.449982 
	C346.623840,450.927155 346.414062,448.647278 344.819550,445.567291 
	C341.432068,439.024200 339.437561,431.980682 337.107300,425.035126 
	C334.614716,417.605835 334.065155,409.787872 332.292175,402.330078 
	C307.732300,401.608490 279.562805,423.862488 278.353027,442.555878 
	C284.105896,443.681763 287.090546,440.069580 290.120026,436.094757 
	C295.666931,428.816925 298.169983,428.941833 304.405640,436.666077 
	C301.541168,440.760834 297.466248,444.242004 295.584137,449.064636 
	C293.767609,453.719330 292.482727,458.581543 290.964294,463.352600 
	C290.492218,463.226624 290.020142,463.100616 289.548065,462.974640 
	C290.205780,458.227051 287.946991,453.941589 287.807068,449.259186 
	C287.705414,445.855255 283.358124,443.812836 281.325897,446.181702 
	C277.643158,450.474396 273.897766,449.229523 269.595764,447.852539 
	C256.745270,443.739410 245.545807,446.323700 236.745026,456.896698 
	C230.066818,464.919678 226.936859,474.141174 228.116013,484.686615 
	C228.423859,487.439667 228.974564,490.295929 225.745605,492.157227 
	C220.995361,494.895416 217.985123,499.326019 215.003876,503.792389 
	C205.893036,517.441895 205.581558,545.348816 219.286270,554.935242 
	C220.266846,555.621155 221.499237,556.595886 220.866684,558.294556 
	C219.677246,559.402039 217.410477,558.448547 216.409103,560.947510 
	C217.725357,567.311707 222.413696,572.619507 225.114883,578.821594 
	C229.204193,588.210876 236.863098,595.394348 245.183762,601.365540 
	C260.597900,612.427246 277.455841,615.771912 295.771393,609.571533 
	C299.449707,608.326294 300.824585,606.444580 297.748871,603.143188 
	C293.028137,598.076233 289.423096,592.332153 287.374054,585.686646 
	C286.459656,582.721069 284.388336,582.249878 281.591614,582.238403 
	C263.441071,582.164124 250.453003,573.042664 240.738708,558.456543 
	C238.790726,555.531555 237.652512,552.151550 236.968216,548.717163 
	C236.145935,544.590332 237.828857,541.231323 241.711960,539.883911 
	C245.548492,538.552734 249.357422,539.009155 251.400848,543.457275 
	C252.304214,545.423706 253.303909,547.346313 254.280106,549.278625 
	C262.120087,564.796875 279.715881,569.918396 294.387787,560.956726 
	C299.018860,558.128052 304.633240,558.198364 307.122528,561.664490 
	C309.994873,565.664062 307.804382,569.752808 305.140137,572.494751 
	C301.782257,575.950623 302.553955,578.885864 304.319885,582.322083 
	C314.663544,602.448486 338.090240,607.910339 355.643036,599.376099 
	C365.220154,594.719727 370.762238,586.505310 372.549683,575.979187 
	C373.346191,571.288513 370.676605,567.828186 367.173035,565.419495 
	C363.830780,563.121643 362.755371,567.274048 360.939392,568.695190 
	C350.563446,576.815247 339.156799,581.605957 325.779175,579.723633 
	C320.354034,578.960266 317.336029,575.218628 317.766632,571.139954 
	C318.223389,566.813538 320.823883,565.033264 326.751251,564.626099 
	C337.740295,563.871155 347.574677,560.931702 354.535309,551.344360 
	C360.710144,542.839355 364.426605,543.191528 372.034119,550.851135 
	C381.881927,560.766418 392.306824,569.953674 407.826752,568.710938 
	C411.232880,568.438171 415.504517,569.851746 417.581482,566.423096 
	C420.663391,561.335510 423.237946,555.845764 425.197693,548.953003 
	C418.416626,551.163818 413.213806,553.881653 407.471832,554.753296 
	C398.531677,556.110352 389.800507,555.995483 382.274719,550.014832 
	C379.874725,548.107605 377.849762,545.788452 379.718567,542.293091 
	C381.527191,538.910400 384.137665,536.882690 388.132141,537.389893 
	C389.768982,537.597717 391.348938,538.222900 392.970306,538.589172 
	C396.049530,539.284912 399.079163,539.707642 402.332947,539.423523 
	C413.791473,538.422485 421.106018,531.648865 426.789551,522.501038 
	C429.756439,517.725647 429.265320,516.498901 423.637512,515.028503 
	C396.353363,507.899872 375.054718,492.329285 358.853210,469.457825 
	C357.646851,467.754852 356.663910,465.702423 354.438263,465.039764 
	C346.341034,470.251923 344.467072,470.365448 340.658661,466.063446 
	C342.312073,466.555969 343.913574,466.225067 345.509583,465.765350 
	C346.777496,465.400146 348.248962,465.147461 348.490021,463.584961 
	C348.779266,461.710510 347.181488,461.106445 345.880127,460.450226 
	C341.856171,458.421112 340.164734,460.042084 339.471741,465.620209 
M443.331482,436.239227 
	C452.390930,439.752625 461.612549,440.471710 471.246643,438.837128 
	C478.795197,437.556396 485.489410,434.307709 492.301666,431.263336 
	C497.240692,429.056122 501.258484,429.681488 504.793182,433.850616 
	C506.512115,435.878082 508.390259,437.799225 510.375519,439.567261 
	C519.571350,447.757050 530.386536,450.749237 542.596008,450.039490 
	C555.329102,449.299316 565.659973,444.090942 573.869568,434.536560 
	C577.330078,430.509216 581.297974,429.766357 585.928284,431.932556 
	C590.150269,433.907776 594.239685,436.174011 598.498108,438.062683 
	C624.680664,449.674988 655.203125,439.059875 667.424194,413.634979 
	C670.202881,407.854095 673.591736,402.781097 677.625000,397.963226 
	C680.558350,394.459167 683.794556,394.864594 685.749573,399.061584 
	C686.544556,400.768341 686.583679,402.533051 686.485840,404.416595 
	C685.615723,421.170563 676.482422,433.418304 664.494568,443.801270 
	C649.037781,457.188843 630.641724,461.690094 610.537537,460.168304 
	C608.947021,460.047882 607.161743,459.190399 606.085632,461.201172 
	C605.063721,463.110565 605.021606,465.067627 606.234497,466.885315 
	C607.060852,468.123749 608.025574,469.290863 609.053528,470.370697 
	C620.548523,482.445160 635.371582,485.313202 650.470703,481.969727 
	C683.033569,474.759186 701.154968,451.494598 712.701172,421.930634 
	C710.760132,414.431580 716.197815,409.292725 718.360596,403.032654 
	C725.175903,383.306305 723.932617,363.656403 709.884094,347.557343 
	C702.832153,339.476135 700.419861,332.041443 700.577759,321.668945 
	C700.910339,299.820251 678.454407,279.258911 658.734192,282.647430 
	C649.800659,284.182465 645.689453,280.913513 640.486267,274.688843 
	C623.059265,253.840607 589.323669,246.320587 563.930908,267.342590 
	C561.242737,269.568024 559.468262,269.534668 557.301575,267.041962 
	C556.104187,265.664368 554.708374,264.452911 553.354370,263.218781 
	C539.626282,250.705643 523.382263,246.457535 505.268646,249.020798 
	C484.976746,251.892319 469.296204,262.318573 457.871277,279.163696 
	C455.612671,282.493835 453.768036,283.171082 449.797974,281.513214 
	C437.284973,276.287842 425.366913,278.099792 414.517731,286.258240 
	C402.670654,295.167145 397.025024,307.350250 396.426880,321.917725 
	C396.276550,325.579407 395.853485,328.025146 391.784241,329.356232 
	C387.369141,330.800446 383.526245,333.612244 380.099304,336.869385 
	C367.563782,348.783875 362.699493,363.566406 363.188934,380.590027 
	C363.459991,390.018066 365.683502,398.340424 373.345306,404.517426 
	C374.213959,405.217804 375.262756,405.931793 375.134399,407.325775 
	C368.953308,411.467865 368.928589,411.653229 373.177582,418.073761 
	C374.355499,419.853638 376.337646,421.658478 375.498993,423.861664 
	C374.441284,426.640381 375.592804,428.684326 376.599152,430.951599 
	C380.404938,439.525940 385.134674,447.576965 391.151276,454.750336 
	C406.422882,472.958191 424.675995,485.157379 449.827576,482.709045 
	C457.553558,481.956970 464.628937,479.635406 470.473541,474.196014 
	C468.117523,469.553833 465.976501,465.427002 463.926117,461.255615 
	C462.934631,459.238464 461.429291,458.494507 459.195831,458.259552 
	C442.925079,456.548035 428.609558,450.343903 416.996185,438.713287 
	C409.639954,431.346161 403.544037,423.001251 401.058777,412.597229 
	C399.882019,407.670990 402.107666,403.427979 406.293365,402.066925 
	C410.277863,400.771271 414.404175,402.728577 416.583221,406.970612 
	C416.962769,407.709473 417.264801,408.488617 417.593414,409.253113 
	C422.717316,421.172485 430.660278,430.440979 443.331482,436.239227 
M439.563568,592.954834 
	C434.387482,604.542114 429.211395,616.129395 423.705994,628.453857 
	C430.049896,628.453857 435.164459,628.709412 440.246063,628.408325 
	C459.331665,627.277588 478.400208,625.851990 497.489044,624.785889 
	C503.683105,624.440002 505.380463,626.885864 503.336548,632.854126 
	C499.455292,644.187561 495.292603,655.424377 491.268768,666.709229 
	C489.073883,672.864624 486.145508,678.803650 485.087860,685.396423 
	C487.785583,685.953308 489.550598,684.822998 491.365692,684.107544 
	C509.633118,676.907410 527.869690,669.628723 546.148071,662.456726 
	C548.708435,661.452148 551.515686,659.804626 554.178345,661.975098 
	C557.012024,664.284973 555.386047,667.244629 554.626770,669.842834 
	C544.827942,703.371277 534.927551,736.870178 525.118652,770.395752 
	C520.263733,786.989380 515.543579,803.622559 510.764282,820.238403 
	C510.333466,821.736206 510.082916,823.248413 511.594299,824.301270 
	C512.895264,825.207520 514.182861,824.662048 515.308044,823.884094 
	C517.772461,822.180115 520.312744,820.552429 522.597351,818.626953 
	C560.545105,786.644287 598.461182,754.624084 636.366028,722.590515 
	C637.813171,721.367554 639.757385,720.283936 639.010986,717.831665 
	C637.371582,716.806335 635.649597,717.132385 634.046875,717.311707 
	C620.343384,718.844910 606.650330,720.471985 592.952087,722.052490 
	C590.092896,722.382385 587.042114,722.718262 585.345093,719.756653 
	C583.757690,716.986450 585.509705,714.615417 587.101990,712.458496 
	C590.464966,707.903076 594.000122,703.473755 597.324219,698.890930 
	C623.916016,662.229614 650.483582,625.550781 677.029663,588.856323 
	C679.436279,585.529602 682.264404,582.419556 683.535889,578.044373 
	C679.496521,576.388733 675.759460,578.218628 672.063660,578.398743 
	C659.606873,579.005798 647.149048,579.818909 634.717102,580.704956 
	C615.944031,582.042908 597.158508,582.688721 578.366821,583.342224 
	C571.496216,583.581116 569.757446,580.793762 572.188660,574.259094 
	C574.857666,567.085205 577.587769,559.934143 580.257629,552.760620 
	C586.469055,536.071411 592.696167,519.387756 598.813904,502.664185 
	C599.570618,500.595642 601.437927,498.172119 599.620605,496.114471 
	C595.696716,491.671478 591.386963,487.569183 587.383240,483.478790 
	C554.534912,507.736145 521.598083,510.590912 487.458069,486.384064 
	C471.510040,521.863586 455.688629,557.061584 439.563568,592.954834 
M873.588806,466.025726 
	C863.397400,446.904297 851.479492,442.219757 831.217224,449.336456 
	C829.368958,449.985657 827.656921,450.931915 825.480347,450.659668 
	C820.023315,449.977081 819.489319,450.686523 820.580261,456.260986 
	C820.836182,457.568665 820.990173,458.907349 821.373047,460.176880 
	C822.357605,463.442047 822.339172,466.284363 818.240112,467.100403 
	C814.365784,467.871674 812.017456,465.958008 811.627869,462.184174 
	C810.580444,452.040161 805.735657,443.971954 798.526123,437.077057 
	C797.720703,436.306793 796.769287,435.479431 796.957764,434.128418 
	C797.600037,432.585419 799.324402,432.306732 800.302124,431.255920 
	C804.232361,427.031586 807.541321,428.522644 810.730713,432.147064 
	C813.041321,434.772736 815.272949,437.474182 817.689026,439.999023 
	C820.067322,442.484344 822.911194,443.224060 826.244934,441.788330 
	C825.552612,435.811981 822.627258,431.134186 819.190247,426.862671 
	C802.932251,406.657349 781.895020,397.611145 755.966553,400.119324 
	C753.152527,400.391510 751.696228,401.621552 751.418762,404.363220 
	C750.560608,412.840210 748.456116,421.045135 745.907654,429.141785 
	C745.350403,430.912323 745.372620,432.385010 746.752441,433.709686 
	C750.548523,437.354126 752.072937,442.131287 753.016724,447.058929 
	C753.656189,450.397491 754.989990,452.282990 758.569092,453.049255 
	C761.585083,453.694916 764.630554,455.290161 763.500916,459.243958 
	C761.924683,460.897156 759.870544,458.240997 758.614868,460.742920 
	C759.146118,465.124908 762.546021,462.109711 764.818237,462.423157 
	C764.017029,466.767548 761.602478,469.010345 757.586792,468.795959 
	C749.107666,468.343170 742.584778,464.826263 739.425232,456.371948 
	C738.837219,454.798737 738.855774,452.636597 736.224304,451.811066 
	C730.993713,459.986694 725.854980,468.336456 719.566895,475.875183 
	C698.250549,501.430817 671.401245,515.667236 637.745178,516.397583 
	C633.533875,516.488892 628.399048,513.744141 625.339478,516.942810 
	C622.576538,519.831421 621.930969,524.745361 620.352417,528.766479 
	C620.291565,528.921448 620.260559,529.091248 620.181580,529.235596 
	C618.775452,531.804382 619.981384,533.343811 622.275452,534.357178 
	C630.803467,538.124207 650.055725,540.451355 657.846497,530.589966 
	C660.453369,527.290283 663.670837,527.132019 666.693970,530.604065 
	C674.153259,539.170715 683.993347,541.344116 694.737122,540.543396 
	C698.865479,540.235657 703.036133,539.554321 707.014404,538.430481 
	C711.320129,537.214050 714.731262,538.458191 718.327332,540.592651 
	C722.353882,542.982727 724.933838,547.081543 728.854797,549.392334 
	C739.052124,542.517273 740.543274,542.770813 747.955688,552.628906 
	C750.735596,556.326050 754.550415,558.642151 758.432068,560.954712 
	C764.166504,564.371033 770.660278,563.853638 776.869385,564.542053 
	C780.904541,564.989441 782.919800,566.876770 783.675720,570.542969 
	C784.547607,574.771179 782.090881,578.068726 776.790588,579.251099 
	C762.924316,582.344421 751.285156,577.567505 740.827026,568.774353 
	C738.941162,567.188721 737.509277,563.953125 734.217102,566.069153 
	C731.074951,568.088684 728.386047,570.450500 728.767334,574.852966 
	C729.677979,585.366272 734.282898,593.369080 743.554810,598.844727 
	C759.717529,608.389587 784.643738,602.720642 795.259644,585.118469 
	C797.866638,580.795837 800.053528,576.710449 795.750732,572.051086 
	C794.605530,570.811035 794.115845,568.757935 793.807129,566.993713 
	C793.016968,562.477234 795.050232,560.071777 799.679443,559.700439 
	C802.557129,559.469604 805.252930,559.880371 807.847412,561.374451 
	C810.135742,562.692261 812.570862,563.914246 815.096313,564.635010 
	C828.972900,568.595398 842.265808,562.164246 849.127991,547.987793 
	C851.311646,543.476440 854.101990,539.785645 858.378662,537.189697 
	C860.522705,535.888184 862.150330,536.135132 863.234985,538.502075 
	C866.219299,545.014587 866.002197,551.325500 862.204712,557.507996 
	C852.441833,573.402283 838.995178,582.903687 819.635132,582.335144 
	C817.526245,582.273193 814.990112,581.777405 814.063171,584.471069 
	C811.277649,592.565247 806.849976,599.701477 801.184631,606.138306 
	C801.993713,607.006897 802.363708,607.598389 802.895447,607.932556 
	C803.876282,608.548950 804.907471,609.141357 805.995178,609.523254 
	C818.585205,613.944031 831.241760,613.739746 843.591919,608.999268 
	C863.366699,601.408875 876.091064,586.403870 885.295959,567.946777 
	C886.373169,565.786865 886.808655,563.658630 885.776672,561.249329 
	C884.289368,557.776855 885.297119,554.845581 888.052185,552.267395 
	C890.237976,550.221863 892.068542,547.848206 893.212830,544.987549 
	C900.034546,527.933777 894.463745,505.113251 880.324646,493.456177 
	C877.564758,491.180786 876.402100,488.806335 876.639343,485.342255 
	C877.076294,478.960358 876.294739,472.715820 873.588806,466.025726 
M578.434875,213.090500 
	C574.255188,199.423370 570.070190,185.757843 565.901733,172.087280 
	C565.298584,170.109207 564.796692,168.423447 561.984131,168.534851 
	C559.559509,168.630920 557.893066,169.007751 556.974976,171.518173 
	C551.550842,186.350189 545.984131,201.130341 540.621704,215.984390 
	C539.756104,218.382019 539.688416,221.196548 542.975708,222.129898 
	C549.126343,223.876266 554.574890,227.104019 560.214844,229.939972 
	C561.373840,230.522766 562.681274,231.657959 563.845825,230.385590 
	C566.647949,227.324081 570.792725,226.516510 573.917419,224.141479 
	C577.158447,221.678070 579.689514,218.501724 578.434875,213.090500 
M490.403595,450.009491 
	C487.047974,451.656158 486.963989,453.865570 488.801422,456.907410 
	C499.966125,475.390228 517.458374,482.258545 537.798828,482.365326 
	C552.196167,482.440918 565.080688,476.971008 575.820374,466.998230 
	C580.039124,463.080750 583.064819,458.344025 585.805237,453.385223 
	C586.534546,452.065552 587.040100,450.513702 585.399109,449.368958 
	C583.932312,448.345795 582.876770,449.497864 581.846252,450.257751 
	C579.970886,451.640503 578.130859,453.077209 576.342896,454.571411 
	C562.192078,466.397430 545.728638,469.347290 528.044312,466.667542 
	C515.873840,464.823303 505.366425,459.210632 496.456482,450.692657 
	C494.823608,449.131592 493.276733,447.544098 490.403595,450.009491 
z"/>
<path fill="#000000" opacity="1.000000" stroke="none" 
	d="
M808.028687,185.073715 
	C804.428467,188.869370 799.754761,188.299698 795.626526,188.981796 
	C777.037537,192.053207 766.759155,203.482651 762.408020,221.122269 
	C761.533203,224.668564 760.925598,228.280319 760.073547,231.832794 
	C758.768005,237.275757 755.389587,240.329651 750.791931,239.874741 
	C745.979797,239.398590 744.273010,235.894241 743.538269,231.617325 
	C743.088867,229.001114 742.501892,226.405228 741.890259,223.820679 
	C736.602722,201.475723 725.906250,191.719910 703.107666,188.330154 
	C701.318176,188.064087 699.487732,187.646271 697.843689,186.919968 
	C694.540100,185.460495 693.403503,182.707214 693.667969,179.169159 
	C693.918396,175.819000 695.859375,173.997314 698.861572,173.292770 
	C702.900330,172.344955 706.979004,171.521133 711.077637,170.882645 
	C723.632324,168.926880 731.630798,161.420197 736.645813,150.193970 
	C740.199097,142.239838 742.249878,133.857361 743.677490,125.302818 
	C744.441772,120.723442 746.736511,117.446579 751.606873,117.027596 
	C756.034729,116.646683 759.125732,119.853378 760.359924,125.519302 
	C761.809143,132.172699 763.138977,138.847275 765.382690,145.307968 
	C770.541992,160.164154 780.645813,169.142624 796.291504,171.675781 
	C798.421448,172.020645 800.558777,172.365128 802.654053,172.870377 
	C809.248169,174.460464 811.067017,178.370178 808.028687,185.073715 
z"/>
<path fill="#000000" opacity="1.000000" stroke="none" 
	d="
M376.952454,134.979706 
	C379.972382,127.471825 380.753845,119.808128 382.541626,112.391380 
	C383.930695,106.628639 386.586182,103.935707 390.865051,104.033577 
	C395.670135,104.143478 398.305450,106.837158 399.321106,112.768372 
	C400.610413,120.297638 401.860138,127.801193 404.663727,135.001358 
	C409.526550,147.490295 418.792236,154.839630 431.274933,158.590820 
	C434.450439,159.545090 437.750519,160.077148 440.971680,160.889267 
	C444.865692,161.871002 447.219788,164.481659 446.826019,168.439301 
	C446.431030,172.408844 444.644867,175.736801 439.919342,176.373215 
	C433.834656,177.192703 427.624939,177.717636 422.001923,180.419571 
	C409.391968,186.478836 403.145966,197.255707 400.381866,210.434082 
	C399.530884,214.491257 399.252167,218.677872 398.258575,222.693161 
	C397.196777,226.984009 394.445007,229.476852 389.642029,229.403534 
	C384.865387,229.330612 383.492462,226.170471 382.660156,222.377426 
	C381.309387,216.221420 380.763855,209.916992 378.852112,203.854050 
	C374.118042,188.840363 362.192780,178.937637 346.583374,177.251236 
	C344.604553,177.037460 342.635162,176.645020 340.693878,176.195114 
	C337.135895,175.370499 334.731445,173.588898 334.598572,169.454697 
	C334.456726,165.040543 336.061707,161.968231 340.402161,160.764969 
	C343.433563,159.924606 346.562988,159.445007 349.627777,158.716644 
	C362.708099,155.608002 371.947540,148.012024 376.952454,134.979706 
z"/>
<path fill="#000000" opacity="1.000000" stroke="none" 
	d="
M255.396957,340.634338 
	C259.806183,344.642883 265.007385,345.792114 270.291901,346.616974 
	C273.427368,347.106415 276.528717,347.698364 279.438354,348.945160 
	C282.430603,350.227356 283.510071,352.799011 283.214874,355.875946 
	C282.934235,358.801025 281.399017,360.801392 278.329773,361.381470 
	C274.736633,362.060516 271.171814,362.908020 267.562592,363.479858 
	C254.910370,365.484436 247.979752,373.216492 245.443619,385.385468 
	C244.664185,389.125305 244.041687,392.897644 243.282593,396.642029 
	C242.411606,400.938202 239.280151,402.803314 235.347076,402.898071 
	C231.464005,402.991608 229.418915,400.317047 228.657654,396.687134 
	C227.704773,392.143585 226.938034,387.557800 225.873077,383.041595 
	C222.990784,370.818481 215.173340,364.327667 202.685211,363.304688 
	C200.373611,363.115326 198.050797,362.735657 195.803116,362.167206 
	C192.090790,361.228333 188.694061,359.729462 188.775757,355.057098 
	C188.853958,350.584137 191.825775,348.696716 195.721497,347.813660 
	C197.505112,347.409332 199.299850,347.028992 201.107834,346.761200 
	C217.302032,344.362671 224.042160,337.695190 226.680923,321.539215 
	C227.242737,318.099335 227.958008,314.678375 228.757538,311.285217 
	C229.576553,307.809448 231.825378,305.891937 235.465637,305.686615 
	C239.076050,305.482971 241.769257,306.972443 242.814484,310.408569 
	C244.212708,315.005219 245.104584,319.753235 246.387375,324.388275 
	C248.047424,330.386414 250.450470,336.023041 255.396957,340.634338 
z"/>
<path fill="#000000" opacity="1.000000" stroke="none" 
	d="
M880.357056,313.628479 
	C881.222168,309.128052 882.959106,305.763062 887.706055,305.777161 
	C892.423767,305.791138 894.730530,308.576324 895.549561,313.193024 
	C896.387695,317.917267 897.574402,322.609528 899.002441,327.193115 
	C902.341003,337.908997 909.107178,344.932831 920.662476,346.645142 
	C923.936768,347.130341 927.174927,347.944855 930.378235,348.800812 
	C933.586426,349.658112 935.682312,351.576782 935.350464,355.240326 
	C935.052002,358.535034 933.717285,360.896790 930.068909,361.448883 
	C926.951477,361.920624 923.887207,362.738068 920.772278,363.231506 
	C906.838501,365.438873 900.444641,371.455994 897.430908,385.431488 
	C896.662170,388.996613 896.074890,392.601807 895.446167,396.195923 
	C894.703796,400.440002 891.968628,402.745911 887.910889,402.850891 
	C883.636963,402.961426 881.373596,400.300140 880.635132,396.105865 
	C879.858826,391.696869 879.021423,387.278717 877.846558,382.963715 
	C874.665161,371.279327 867.194763,364.503845 854.900208,363.330170 
	C851.937744,363.047333 848.998413,362.379333 846.090271,361.707275 
	C842.408875,360.856567 840.476624,358.744171 840.571533,354.627075 
	C840.664551,350.592987 842.981934,349.060181 846.299133,348.225647 
	C848.554321,347.658264 850.822205,347.085510 853.118652,346.747223 
	C868.763428,344.442566 876.060669,337.328278 878.647888,321.823578 
	C879.084534,319.206726 879.697144,316.619232 880.357056,313.628479 
z"/>
<path fill="#000000" opacity="1.000000" stroke="none" 
	d="
M302.638489,199.618637 
	C303.315186,196.297501 304.032043,193.393280 304.545044,190.453491 
	C305.110779,187.211807 306.798950,185.301605 310.189636,185.296829 
	C313.826721,185.291702 315.517914,187.568466 316.243774,190.802399 
	C316.970490,194.040100 317.573181,197.306732 318.350342,200.531769 
	C320.217468,208.279831 324.660217,213.572861 332.681183,215.480026 
	C334.769836,215.976654 336.866791,216.603073 338.811981,217.493240 
	C340.884796,218.441849 342.355408,220.130066 342.020081,222.614655 
	C341.716064,224.867142 340.668488,226.733078 338.256927,227.423355 
	C336.341553,227.971573 334.448792,228.649185 332.498260,229.015091 
	C324.113373,230.588058 319.482422,235.844559 317.647034,243.906296 
	C316.874237,247.300842 316.222046,250.724442 315.378510,254.100739 
	C314.697266,256.827637 312.940887,258.319916 309.992310,258.335480 
	C307.001038,258.351288 305.314331,256.786865 304.683350,254.051926 
	C303.937775,250.820053 303.462769,247.525742 302.716553,244.294052 
	C300.811676,236.044632 296.861908,229.830750 287.437012,228.995132 
	C285.650116,228.836700 283.872742,228.177902 282.172180,227.535110 
	C279.905762,226.678436 278.933868,224.790604 278.754852,222.460815 
	C278.565308,219.994720 279.743286,218.288177 281.900665,217.288651 
	C283.251465,216.662811 284.668213,215.994751 286.117218,215.795410 
	C295.458099,214.510269 300.409729,208.734375 302.638489,199.618637 
z"/>
<path fill="#000000" opacity="1.000000" stroke="none" 
	d="
M765.816833,277.772491 
	C766.603638,274.313477 767.104675,271.185333 768.047363,268.196533 
	C768.919250,265.431854 770.985535,263.625366 774.049622,263.933685 
	C776.920471,264.222534 778.869019,265.724640 779.457458,268.884247 
	C780.184937,272.789703 781.130066,276.668793 782.230896,280.487305 
	C784.217834,287.379730 788.874023,291.406372 795.931458,292.705475 
	C797.562439,293.005707 799.196899,293.377197 800.765503,293.906250 
	C803.255798,294.746155 805.432007,296.065308 805.182800,299.150146 
	C804.948242,302.053894 803.351074,304.114716 800.561768,305.065704 
	C799.152344,305.546265 797.679260,305.913666 796.205261,306.119476 
	C787.292725,307.363953 782.380005,312.699768 780.543335,321.248566 
	C780.124878,323.196472 779.643982,325.131470 779.251892,327.084442 
	C778.570862,330.476288 776.138977,331.719696 773.086243,331.759918 
	C770.220154,331.797668 768.546265,330.014648 767.886597,327.271820 
	C767.847717,327.110168 767.808350,326.946747 767.791748,326.781921 
	C766.516052,314.168915 759.895752,306.807861 747.054321,305.166412 
	C744.044739,304.781708 741.330566,303.298126 741.514038,299.313354 
	C741.741821,294.368439 745.454834,293.335907 749.080627,292.933685 
	C758.249390,291.916626 763.459106,286.785583 765.816833,277.772491 
z"/>
<path fill="#000000" opacity="1.000000" stroke="none" 
	d="
M332.885193,309.594940 
	C325.566711,317.932465 315.328918,318.698090 310.050262,311.611359 
	C305.985870,306.154846 306.154755,298.507660 310.446167,293.682098 
	C315.012634,288.547302 322.680573,287.518127 328.506927,291.257965 
	C334.404114,295.043274 336.089783,301.675934 332.885193,309.594940 
z"/>
<path fill="#000000" opacity="1.000000" stroke="none" 
	d="
M695.962280,223.607941 
	C691.975037,230.567459 687.617981,232.745514 681.522156,231.113937 
	C676.813293,229.853592 673.501526,224.838181 673.626404,219.156342 
	C673.776917,212.307755 678.759705,207.794159 685.667053,208.249466 
	C693.036926,208.735260 697.433350,213.777130 696.589844,220.802017 
	C696.491028,221.625351 696.269409,222.433929 695.962280,223.607941 
z"/>
<path fill="#000000" opacity="1.000000" stroke="none" 
	d="
M454.544800,371.881042 
	C458.229248,362.501678 464.889740,358.312469 474.508942,358.681641 
	C475.839966,358.732727 477.174591,358.718689 478.506989,358.698120 
	C485.713989,358.586884 488.713501,355.572754 488.787567,348.239594 
	C488.829651,344.075897 488.631531,339.908997 488.706299,335.746490 
	C488.953308,321.993683 498.464844,312.129578 512.244507,311.791168 
	C518.524231,311.636963 524.801453,309.887115 531.119202,311.583252 
	C532.733582,312.016693 534.024780,311.192169 534.955444,309.840179 
	C535.427429,309.154419 535.761597,308.281647 536.394531,307.812500 
	C546.828735,300.078705 551.896729,287.748474 561.125854,279.002533 
	C564.289062,276.004944 567.961060,273.715881 571.939636,271.901855 
	C574.847412,270.576080 577.111023,270.682770 578.225403,274.175781 
	C578.376404,274.649139 578.584351,275.112366 578.824158,275.548248 
	C582.468445,282.172516 582.473328,282.174805 576.059570,286.899994 
	C573.223206,288.989624 570.211975,291.174011 568.807922,294.351410 
	C566.411865,299.773895 562.371704,303.466003 557.938599,307.063477 
	C552.992126,311.077484 550.320312,316.538055 548.682617,322.677795 
	C546.250916,331.793915 540.316528,333.963379 532.157227,329.533875 
	C525.023804,325.661346 517.268372,326.726105 509.826721,328.428833 
	C506.065979,329.289307 504.679993,333.057343 504.488373,336.714417 
	C504.315186,340.019562 504.515411,343.375580 504.881500,346.672455 
	C506.760895,363.598389 495.401611,376.019470 478.486877,375.417999 
	C469.062744,375.082855 466.224335,379.521576 470.416321,387.986969 
	C471.201202,389.571991 472.633118,390.955536 472.131744,393.435425 
	C467.912048,393.839081 464.142792,395.313599 460.940399,398.608643 
	C458.851959,400.757477 457.382446,398.027832 456.536499,396.407532 
	C452.503357,388.682404 451.765167,380.601044 454.544800,371.881042 
z"/>
<path fill="#000000" opacity="1.000000" stroke="none" 
	d="
M666.893677,335.014465 
	C657.104858,330.811951 651.063782,331.977264 643.839478,338.795074 
	C640.951050,341.520905 637.711548,343.926971 634.408936,346.147003 
	C631.051453,348.403900 627.286865,348.763275 623.428955,347.243896 
	C620.300110,346.011688 618.743835,343.644165 618.430542,340.393341 
	C618.134521,337.320496 619.297913,334.865875 621.768372,333.038574 
	C622.164673,332.745392 622.629089,332.499969 623.099915,332.358246 
	C637.339294,328.071899 636.631775,316.342255 630.913452,305.155243 
	C625.396179,294.361603 617.196228,286.403137 605.328308,282.715454 
	C603.452271,282.132507 601.428711,281.619019 600.299194,278.836182 
	C604.475708,276.551025 607.255066,273.089630 605.411255,267.294830 
	C614.223389,267.819489 620.682617,271.571655 626.516052,276.205261 
	C637.874268,285.227325 647.512695,295.622986 650.661377,310.504181 
	C651.194946,313.025909 651.948486,315.324799 655.024780,315.905212 
	C657.797302,316.428223 659.126953,314.973480 660.672241,312.941223 
	C663.888977,308.711029 668.096497,308.896881 671.458252,313.252441 
	C674.635925,317.369598 678.300476,320.924255 682.329651,324.206726 
	C684.399414,325.892944 686.191284,326.450836 689.257812,324.059296 
	C689.257812,329.635864 689.593079,334.234802 689.172424,338.763519 
	C688.653992,344.345245 681.503235,346.365784 676.740417,342.377075 
	C673.684265,339.817627 671.022522,336.765930 666.893677,335.014465 
z"/>
<path fill="#000000" opacity="1.000000" stroke="none" 
	d="
M630.698242,385.255798 
	C629.198914,376.732513 626.788696,375.297272 618.881165,375.916595 
	C612.792908,376.393433 606.716675,377.061737 600.498352,376.704407 
	C584.037842,375.758575 572.547913,361.485168 573.921448,343.178711 
	C574.546936,334.841766 576.946960,327.103668 583.588867,321.429901 
	C589.548279,316.339203 592.778809,317.281342 594.583984,324.760468 
	C595.187866,327.262665 596.863220,328.628387 598.325745,330.037598 
	C598.147522,331.706940 597.057617,332.238831 596.111206,332.901764 
	C590.243042,337.012360 587.936218,343.993347 590.206787,350.753479 
	C592.502258,357.587616 597.905273,361.091736 605.684753,360.580536 
	C611.322998,360.209991 616.946167,359.613342 622.578125,359.142273 
	C627.372620,358.741272 631.785522,359.671448 635.754883,362.603821 
	C646.176453,370.302826 649.423035,385.100433 642.737488,396.396759 
	C640.087036,390.683990 635.554749,391.705048 630.707764,393.424011 
	C630.707764,390.476074 630.707764,388.069885 630.698242,385.255798 
z"/>
<path fill="#000000" opacity="1.000000" stroke="none" 
	d="
M540.019165,366.875061 
	C547.166382,363.440674 552.712219,365.950195 552.821838,372.879395 
	C553.018982,385.336090 551.842285,397.562317 542.410583,407.181335 
	C536.219360,413.495544 528.859314,417.955231 520.313660,420.082245 
	C514.715942,421.475555 510.951782,419.344604 509.331635,414.855225 
	C507.706451,410.351898 508.890228,407.731720 513.365479,405.895081 
	C517.523071,404.188843 521.615173,402.379242 525.275513,399.690674 
	C532.985962,394.027283 536.753601,386.544403 536.083618,376.916046 
	C535.819153,373.116302 536.402954,369.592499 540.019165,366.875061 
z"/>
<path fill="#000000" opacity="1.000000" stroke="none" 
	d="
M468.820679,282.565216 
	C473.392975,279.366028 475.851593,281.753601 478.650940,284.991241 
	C481.717285,288.537720 479.096069,290.337067 477.184631,292.487396 
	C472.824738,297.392303 469.794556,303.023346 467.480499,309.135681 
	C465.332062,314.810486 461.867157,317.091339 458.047119,315.758453 
	C453.962189,314.333130 452.084351,309.999695 453.505432,304.521576 
	C455.851379,295.478333 461.951843,288.952271 468.820679,282.565216 
z"/>
<path fill="#000000" opacity="1.000000" stroke="none" 
	d="
M406.784454,331.495636 
	C406.759003,327.739166 406.554260,324.402130 406.856476,321.111664 
	C407.069153,318.796112 407.962402,316.442963 410.716797,315.905060 
	C413.588684,315.344238 415.446198,316.861267 416.687408,319.318970 
	C421.767975,329.379059 421.341461,327.505096 414.541931,333.754425 
	C413.242035,334.949158 412.357788,336.596100 411.129639,338.237762 
	C407.612762,337.608704 407.658325,334.448975 406.784454,331.495636 
z"/>
<path fill="#000000" opacity="1.000000" stroke="none" 
	d="
M785.455078,486.154968 
	C786.695007,490.416321 790.033936,488.763611 792.213867,488.548401 
	C812.731445,486.522858 825.376099,510.737701 816.413513,528.004089 
	C813.344666,533.916321 809.021790,539.140137 801.471741,539.858398 
	C796.803528,540.302368 795.597717,539.010193 795.660889,534.467590 
	C795.722107,530.066528 797.064209,526.649963 800.307007,523.430420 
	C804.816101,518.953674 804.979065,512.710571 801.605713,507.895111 
	C798.371521,503.278168 791.457520,501.187408 785.980652,503.181091 
	C785.355835,503.408569 784.749817,503.690247 784.142700,503.963745 
	C780.487427,505.610748 776.631226,506.470306 773.249512,503.860382 
	C769.542236,500.999237 769.601074,496.892853 770.188599,492.484314 
	C771.424988,483.206329 772.133423,473.848358 779.144165,466.611511 
	C780.762939,464.940521 782.253479,463.095825 784.075745,461.682678 
	C787.080505,459.352539 790.386169,459.298798 793.123535,462.044647 
	C795.812256,464.741699 796.070740,468.003540 793.627258,471.075592 
	C790.082275,475.532410 786.670349,480.027496 785.455078,486.154968 
M788.158508,469.518494 
	C788.676880,467.979614 789.537109,466.250122 787.305664,465.433533 
	C785.956421,464.939728 784.761475,465.727448 784.000916,466.913055 
	C783.143066,468.250275 782.859375,469.724915 784.153259,470.904663 
	C785.593933,472.218201 786.818481,471.480042 788.158508,469.518494 
z"/>
<path fill="#000000" opacity="1.000000" stroke="none" 
	d="
M744.729370,513.160034 
	C748.335815,518.711365 753.091064,522.037964 758.959839,523.595398 
	C760.924622,522.708069 759.428833,520.548340 761.344177,519.307129 
	C766.471558,520.493835 772.212097,520.949219 777.993225,523.293884 
	C776.021301,526.757568 775.527771,529.818176 778.966675,532.550598 
	C780.973328,534.145081 781.602600,536.664673 779.660034,538.715515 
	C777.680481,540.805359 775.026550,540.533020 772.819885,538.978210 
	C770.424194,537.290222 768.796997,534.995667 769.355347,531.769470 
	C769.575378,530.497925 770.253235,529.200439 768.612366,527.311096 
	C766.161438,529.940430 762.358765,530.875122 760.404297,534.210632 
	C758.454834,537.537598 756.111328,538.490662 752.142029,537.634705 
	C735.640442,534.076416 722.259399,514.100098 725.845886,497.703369 
	C726.655151,494.003876 728.867065,491.227356 732.988953,491.236786 
	C737.062561,491.246063 739.863892,493.097107 740.609741,497.550140 
	C741.480286,502.746887 741.509949,508.192169 744.729370,513.160034 
z"/>
<path fill="#000000" opacity="1.000000" stroke="none" 
	d="
M837.714966,510.196777 
	C834.575623,505.304962 836.018127,501.990814 840.004211,498.733429 
	C846.130249,493.727325 852.079834,488.428284 855.582764,481.064240 
	C857.140381,477.789703 859.404358,475.372467 863.256897,475.903809 
	C867.489563,476.487640 867.354187,480.348572 867.656616,483.314209 
	C869.043640,496.915558 856.078857,511.005798 844.552063,513.195068 
	C841.852661,513.707764 839.681091,512.566162 837.714966,510.196777 
z"/>
<path fill="#000000" opacity="1.000000" stroke="none" 
	d="
M847.971741,527.890869 
	C849.276978,524.462463 850.703308,521.441284 851.534485,518.264343 
	C852.326843,515.235657 854.018433,514.544250 856.653870,515.391785 
	C861.074158,516.813171 864.660828,519.228882 866.457520,523.801025 
	C867.760193,527.116211 865.307678,531.413696 862.136719,530.365173 
	C857.889832,528.960754 854.413391,530.356628 850.628906,531.311035 
	C848.010010,531.971436 846.676453,531.151489 847.971741,527.890869 
z"/>
<path fill="#000000" opacity="1.000000" stroke="none" 
	d="
M302.072418,535.106201 
	C294.644714,537.584839 292.803833,537.081726 288.907196,530.807983 
	C283.035828,521.354797 283.174774,511.493896 288.043365,501.772400 
	C292.695709,492.482635 300.683441,488.566010 310.922943,488.670532 
	C318.183289,488.744690 318.468140,487.956665 315.911224,480.843658 
	C314.407898,476.661591 310.695190,473.687805 309.482666,468.715668 
	C313.155884,469.840607 315.693665,473.425018 319.829102,471.119385 
	C320.891327,467.010284 317.550720,464.418427 315.237549,461.100281 
	C318.184631,460.096771 319.956329,461.124695 321.358459,462.798462 
	C327.215332,469.789948 332.105804,477.228333 332.251404,486.841858 
	C332.283905,488.988983 332.552246,491.158569 332.964722,493.268433 
	C333.799225,497.536926 333.049805,501.335541 329.550415,504.074738 
	C326.053314,506.812103 322.410797,505.936401 318.842621,503.875214 
	C313.467438,500.770264 308.441040,502.455719 303.853241,505.556183 
	C299.887390,508.236298 298.944672,512.447815 299.348450,517.050659 
	C299.648224,520.467224 301.624390,522.838928 303.986267,525.046204 
	C308.722870,529.472839 308.282379,532.218872 302.072418,535.106201 
z"/>
<path fill="#000000" opacity="1.000000" stroke="none" 
	d="
M358.497375,509.333130 
	C359.288818,505.207458 360.273468,501.482300 360.564423,497.703735 
	C360.907257,493.251129 363.564819,491.521118 367.369293,491.226593 
	C371.305328,490.921936 373.398407,493.407501 374.377625,496.993805 
	C376.371063,504.294769 374.812653,511.312256 371.847076,517.868225 
	C367.427368,527.638855 360.448303,534.877808 349.613892,537.755188 
	C344.215454,539.188904 342.869171,536.274902 339.562805,529.693298 
	C337.562164,525.710876 341.676544,524.543274 344.239410,523.568909 
	C351.056519,520.977173 355.695587,516.398376 358.497375,509.333130 
z"/>
<path fill="#000000" opacity="1.000000" stroke="none" 
	d="
M266.941986,506.661865 
	C264.090515,512.257568 261.080200,513.622192 256.042694,511.951935 
	C245.464203,508.444458 236.037827,494.717438 236.720001,483.689911 
	C236.905258,480.695160 237.158798,477.245331 240.403671,476.132965 
	C243.903168,474.933319 246.055984,477.942871 247.442047,480.444214 
	C251.590942,487.931335 256.405792,494.661591 263.796906,499.365692 
	C266.049164,500.799164 267.272125,503.353607 266.941986,506.661865 
M255.339386,506.016235 
	C255.803650,507.330170 256.720947,508.242401 257.936279,508.858002 
	C260.137512,509.972992 262.243713,510.029053 263.265961,507.422394 
	C264.214661,505.003265 262.972656,503.082458 260.668549,502.390900 
	C258.165192,501.639557 255.607468,501.654694 255.339386,506.016235 
z"/>
</svg>